<svg id="visual" viewBox="0 0 600 1080" width="600" height="1080" xmlns="http://www.w3.org/2000/svg" xmlns:xlink="http://www.w3.org/1999/xlink" version="1.1"><rect x="0" y="0" width="600" height="1080" fill="#001220"></rect><defs><linearGradient id="grad1_0" x1="0%" y1="0%" x2="100%" y2="100%"><stop offset="30%" stop-color="#001220" stop-opacity="1"></stop><stop offset="70%" stop-color="#001220" stop-opacity="1"></stop></linearGradient></defs><defs><linearGradient id="grad2_0" x1="0%" y1="0%" x2="100%" y2="100%"><stop offset="30%" stop-color="#001220" stop-opacity="1"></stop><stop offset="70%" stop-color="#001220" stop-opacity="1"></stop></linearGradient></defs><g transform="translate(600, 0)"><path d="M0 540C-81.1 542.6 -162.2 545.1 -206.6 498.9C-251.1 452.7 -258.8 357.7 -305.5 305.5C-352.1 253.3 -437.6 243.9 -483.2 200.1C-528.8 156.4 -534.4 78.2 -540 0L0 0Z" fill="#c9184a"></path></g><g transform="translate(0, 1080)"><path d="M0 -540C51.6 -485.5 103.2 -430.9 170.7 -412.1C238.2 -393.2 321.6 -410 381.1 -381.1C440.7 -352.3 476.4 -277.8 498.9 -206.6C521.4 -135.5 530.7 -67.8 540 0L0 0Z" fill="#c9184a"></path></g></svg>